<svg width="350" height="93" viewBox="0 0 350 93" fill="none" xmlns="http://www.w3.org/2000/svg">
<rect x="0.5" y="0.719727" width="349" height="91" rx="3.5" fill="#F9F9F9"/>
<rect x="0.5" y="0.719727" width="349" height="91" rx="3.5" stroke="#E2E2E2"/>
<path d="M50.6638 21.4297C50.7953 21.4296 50.9255 21.4554 51.047 21.5057C51.1685 21.556 51.2788 21.6297 51.3718 21.7227L52.0788 22.4287L56.3218 26.6707L54.9078 28.0847L50.6658 23.8417L46.4228 28.0847L45.0088 26.6707L49.2518 22.4287L49.9578 21.7227C50.0507 21.6297 50.1611 21.556 50.2826 21.5057C50.4041 21.4554 50.5343 21.4296 50.6658 21.4297H50.6638Z" fill="#151515"/>
<path d="M56.5928 37.4297H43.5928C43.3276 37.4297 43.0732 37.3243 42.8857 37.1368C42.6981 36.9493 42.5928 36.6949 42.5928 36.4297V32.4297H44.5928V35.4297H56.5928V32.4297H58.5928V36.4297C58.5928 36.6949 58.4874 36.9493 58.2999 37.1368C58.1123 37.3243 57.858 37.4297 57.5928 37.4297H56.5928Z" fill="#151515"/>
<path d="M51.7349 32.5005H49.7349V23.5005C49.7349 23.2353 49.8402 22.9809 50.0278 22.7934C50.2153 22.6058 50.4696 22.5005 50.7349 22.5005H51.7349V32.5005Z" fill="#151515"/>
<path d="M67.8548 35.1797H64.4883V24.2706H68.004C69.0622 24.2706 69.9677 24.489 70.7206 24.9258C71.4734 25.359 72.0505 25.9822 72.4518 26.7955C72.853 27.6051 73.0537 28.5746 73.0537 29.7038C73.0537 30.8402 72.8513 31.8185 72.4464 32.6388C72.0416 33.4556 71.4521 34.0842 70.678 34.5245C69.9038 34.9613 68.9628 35.1797 67.8548 35.1797ZM65.8094 34.0078H67.7696C68.6716 34.0078 69.4191 33.8338 70.0121 33.4858C70.6052 33.1378 71.0473 32.6424 71.3385 31.9996C71.6297 31.3569 71.7753 30.5916 71.7753 29.7038C71.7753 28.8232 71.6315 28.065 71.3438 27.4293C71.0562 26.7901 70.6265 26.3001 70.0547 25.9592C69.483 25.6147 68.771 25.4425 67.9187 25.4425H65.8094V34.0078ZM75.0991 35.1797V26.9979H76.3136V28.2337H76.3989C76.548 27.8288 76.8179 27.5004 77.2085 27.2482C77.5991 26.9961 78.0395 26.87 78.5295 26.87C78.6219 26.87 78.7373 26.8718 78.8758 26.8754C79.0143 26.8789 79.119 26.8842 79.19 26.8913V28.1697C79.1474 28.1591 79.0498 28.1431 78.8971 28.1218C78.7479 28.0969 78.5899 28.0845 78.423 28.0845C78.0253 28.0845 77.6702 28.168 77.3577 28.3349C77.0487 28.4982 76.8037 28.7255 76.6226 29.0167C76.445 29.3043 76.3562 29.6328 76.3562 30.0021V35.1797H75.0991ZM83.0879 35.3714C82.5694 35.3714 82.0989 35.2738 81.6763 35.0785C81.2537 34.8796 80.9181 34.5938 80.6695 34.2209C80.421 33.8445 80.2967 33.3899 80.2967 32.8572C80.2967 32.3885 80.389 32.0085 80.5737 31.7173C80.7583 31.4226 81.0051 31.1918 81.3141 31.0249C81.623 30.858 81.9639 30.7337 82.3368 30.652C82.7132 30.5668 83.0914 30.4993 83.4714 30.4496C83.9685 30.3857 84.3716 30.3377 84.6805 30.3058C84.993 30.2702 85.2203 30.2116 85.3624 30.13C85.508 30.0483 85.5808 29.9062 85.5808 29.7038V29.6612C85.5808 29.1357 85.4369 28.7273 85.1493 28.4361C84.8652 28.1449 84.4337 27.9993 83.8549 27.9993C83.2548 27.9993 82.7842 28.1307 82.4433 28.3935C82.1024 28.6562 81.8627 28.9368 81.7242 29.2351L80.531 28.8089C80.7441 28.3118 81.0282 27.9247 81.3833 27.6477C81.742 27.3672 82.1326 27.1719 82.5552 27.0618C82.9813 26.9482 83.4004 26.8913 83.8123 26.8913C84.0751 26.8913 84.3769 26.9233 84.7178 26.9872C85.0623 27.0476 85.3943 27.1737 85.7139 27.3654C86.0371 27.5572 86.3052 27.8466 86.5183 28.2337C86.7313 28.6207 86.8379 29.1392 86.8379 29.7891V35.1797H85.5808V34.0717H85.5168C85.4316 34.2493 85.2896 34.4393 85.0907 34.6417C84.8918 34.8441 84.6273 35.0163 84.297 35.1584C83.9668 35.3004 83.5637 35.3714 83.0879 35.3714ZM83.2796 34.2422C83.7768 34.2422 84.1958 34.1445 84.5367 33.9492C84.8812 33.7539 85.1404 33.5018 85.3144 33.1928C85.492 32.8839 85.5808 32.5589 85.5808 32.218V31.0675C85.5275 31.1314 85.4103 31.19 85.2292 31.2433C85.0516 31.293 84.8457 31.3374 84.6113 31.3764C84.3805 31.4119 84.155 31.4439 83.9348 31.4723C83.7182 31.4972 83.5424 31.5185 83.4075 31.5362C83.0808 31.5788 82.7754 31.6481 82.4913 31.744C82.2107 31.8363 81.9835 31.9766 81.8095 32.1648C81.639 32.3494 81.5538 32.6016 81.5538 32.9212C81.5538 33.358 81.7153 33.6882 82.0385 33.9119C82.3652 34.1321 82.7789 34.2422 83.2796 34.2422ZM96.675 35.3501C95.9363 35.3501 95.2882 35.1744 94.7307 34.8228C94.1767 34.4712 93.7435 33.9794 93.431 33.3473C93.122 32.7152 92.9676 31.9766 92.9676 31.1314C92.9676 30.2791 93.122 29.5352 93.431 28.8995C93.7435 28.2638 94.1767 27.7702 94.7307 27.4187C95.2882 27.0671 95.9363 26.8913 96.675 26.8913C97.4136 26.8913 98.0599 27.0671 98.6139 27.4187C99.1714 27.7702 99.6046 28.2638 99.9136 28.8995C100.226 29.5352 100.382 30.2791 100.382 31.1314C100.382 31.9766 100.226 32.7152 99.9136 33.3473C99.6046 33.9794 99.1714 34.4712 98.6139 34.8228C98.0599 35.1744 97.4136 35.3501 96.675 35.3501ZM96.675 34.2209C97.236 34.2209 97.6977 34.0771 98.0599 33.7894C98.4221 33.5018 98.6902 33.1236 98.8642 32.6548C99.0382 32.1861 99.1252 31.6783 99.1252 31.1314C99.1252 30.5845 99.0382 30.0749 98.8642 29.6026C98.6902 29.1303 98.4221 28.7486 98.0599 28.4574C97.6977 28.1662 97.236 28.0206 96.675 28.0206C96.1139 28.0206 95.6522 28.1662 95.29 28.4574C94.9278 28.7486 94.6597 29.1303 94.4857 29.6026C94.3117 30.0749 94.2247 30.5845 94.2247 31.1314C94.2247 31.6783 94.3117 32.1861 94.4857 32.6548C94.6597 33.1236 94.9278 33.5018 95.29 33.7894C95.6522 34.0771 96.1139 34.2209 96.675 34.2209ZM105.625 35.3501C104.858 35.3501 104.198 35.169 103.644 34.8068C103.09 34.4446 102.664 33.9457 102.365 33.31C102.067 32.6744 101.918 31.9482 101.918 31.1314C101.918 30.3004 102.07 29.5671 102.376 28.9315C102.685 28.2923 103.114 27.7933 103.665 27.4347C104.219 27.0724 104.865 26.8913 105.604 26.8913C106.179 26.8913 106.698 26.9979 107.159 27.2109C107.621 27.424 107.999 27.7223 108.294 28.1058C108.589 28.4893 108.771 28.9368 108.842 29.4482H107.585C107.489 29.0753 107.276 28.745 106.946 28.4574C106.619 28.1662 106.179 28.0206 105.625 28.0206C105.135 28.0206 104.705 28.1484 104.336 28.4041C103.97 28.6562 103.684 29.0131 103.478 29.4748C103.276 29.9329 103.175 30.4709 103.175 31.0888C103.175 31.7209 103.274 32.2713 103.473 32.7401C103.676 33.2088 103.96 33.5728 104.325 33.832C104.695 34.0913 105.128 34.2209 105.625 34.2209C105.952 34.2209 106.248 34.1641 106.515 34.0504C106.781 33.9368 107.007 33.7734 107.191 33.5604C107.376 33.3473 107.507 33.0916 107.585 32.7933H108.842C108.771 33.2763 108.596 33.7113 108.315 34.0984C108.038 34.4819 107.671 34.7873 107.213 35.0146C106.758 35.2383 106.229 35.3501 105.625 35.3501ZM111.937 30.2578V35.1797H110.68V24.2706H111.937V28.2763H112.044C112.236 27.8537 112.523 27.5181 112.907 27.2695C113.294 27.0174 113.809 26.8913 114.451 26.8913C115.009 26.8913 115.497 27.0032 115.916 27.2269C116.335 27.4471 116.66 27.7862 116.891 28.2443C117.126 28.6989 117.243 29.2777 117.243 29.9808V35.1797H115.986V30.0661C115.986 29.4162 115.817 28.9137 115.48 28.5586C115.146 28.1999 114.682 28.0206 114.089 28.0206C113.677 28.0206 113.308 28.1076 112.981 28.2816C112.658 28.4556 112.402 28.7095 112.214 29.0433C112.03 29.3771 111.937 29.782 111.937 30.2578ZM129.557 28.8303L128.427 29.1499C128.356 28.9616 128.252 28.7788 128.113 28.6012C127.978 28.4201 127.794 28.271 127.559 28.1538C127.325 28.0366 127.025 27.978 126.659 27.978C126.158 27.978 125.741 28.0934 125.407 28.3242C125.077 28.5515 124.912 28.8409 124.912 29.1925C124.912 29.505 125.025 29.7518 125.253 29.9329C125.48 30.114 125.835 30.2649 126.318 30.3857L127.533 30.6839C128.264 30.8615 128.809 31.1332 129.168 31.4989C129.527 31.8612 129.706 32.3281 129.706 32.8999C129.706 33.3686 129.571 33.7876 129.301 34.157C129.035 34.5263 128.662 34.8175 128.182 35.0305C127.703 35.2436 127.145 35.3501 126.51 35.3501C125.675 35.3501 124.985 35.169 124.438 34.8068C123.891 34.4446 123.545 33.9155 123.399 33.2195L124.592 32.9212C124.706 33.3615 124.921 33.6918 125.237 33.9119C125.556 34.1321 125.974 34.2422 126.489 34.2422C127.074 34.2422 127.54 34.1179 127.884 33.8693C128.232 33.6172 128.406 33.3153 128.406 32.9638C128.406 32.6797 128.307 32.4418 128.108 32.25C127.909 32.0547 127.604 31.9091 127.192 31.8132L125.828 31.4936C125.079 31.3161 124.528 31.0408 124.177 30.668C123.829 30.2915 123.655 29.821 123.655 29.2564C123.655 28.7947 123.784 28.3864 124.044 28.0312C124.306 27.6761 124.663 27.3974 125.114 27.195C125.569 26.9925 126.084 26.8913 126.659 26.8913C127.469 26.8913 128.104 27.0689 128.566 27.424C129.031 27.7791 129.361 28.2479 129.557 28.8303ZM132.855 24.2706V35.1797H131.598V24.2706H132.855ZM137.565 35.3714C137.047 35.3714 136.576 35.2738 136.154 35.0785C135.731 34.8796 135.396 34.5938 135.147 34.2209C134.898 33.8445 134.774 33.3899 134.774 32.8572C134.774 32.3885 134.867 32.0085 135.051 31.7173C135.236 31.4226 135.483 31.1918 135.792 31.0249C136.101 30.858 136.441 30.7337 136.814 30.652C137.191 30.5668 137.569 30.4993 137.949 30.4496C138.446 30.3857 138.849 30.3377 139.158 30.3058C139.471 30.2702 139.698 30.2116 139.84 30.13C139.986 30.0483 140.058 29.9062 140.058 29.7038V29.6612C140.058 29.1357 139.914 28.7273 139.627 28.4361C139.343 28.1449 138.911 27.9993 138.332 27.9993C137.732 27.9993 137.262 28.1307 136.921 28.3935C136.58 28.6562 136.34 28.9368 136.202 29.2351L135.009 28.8089C135.222 28.3118 135.506 27.9247 135.861 27.6477C136.22 27.3672 136.61 27.1719 137.033 27.0618C137.459 26.9482 137.878 26.8913 138.29 26.8913C138.553 26.8913 138.854 26.9233 139.195 26.9872C139.54 27.0476 139.872 27.1737 140.191 27.3654C140.515 27.5572 140.783 27.8466 140.996 28.2337C141.209 28.6207 141.315 29.1392 141.315 29.7891V35.1797H140.058V34.0717H139.994C139.909 34.2493 139.767 34.4393 139.568 34.6417C139.369 34.8441 139.105 35.0163 138.775 35.1584C138.444 35.3004 138.041 35.3714 137.565 35.3714ZM137.757 34.2422C138.254 34.2422 138.673 34.1445 139.014 33.9492C139.359 33.7539 139.618 33.5018 139.792 33.1928C139.97 32.8839 140.058 32.5589 140.058 32.218V31.0675C140.005 31.1314 139.888 31.19 139.707 31.2433C139.529 31.293 139.323 31.3374 139.089 31.3764C138.858 31.4119 138.633 31.4439 138.412 31.4723C138.196 31.4972 138.02 31.5185 137.885 31.5362C137.558 31.5788 137.253 31.6481 136.969 31.744C136.688 31.8363 136.461 31.9766 136.287 32.1648C136.117 32.3494 136.031 32.6016 136.031 32.9212C136.031 33.358 136.193 33.6882 136.516 33.9119C136.843 34.1321 137.256 34.2422 137.757 34.2422ZM136.841 25.6342C136.617 25.6342 136.418 25.549 136.244 25.3786C136.074 25.2045 135.989 25.0057 135.989 24.782C135.989 24.5369 136.074 24.3345 136.244 24.1747C136.418 24.0114 136.617 23.9297 136.841 23.9297C137.086 23.9297 137.288 24.0114 137.448 24.1747C137.612 24.3345 137.693 24.5369 137.693 24.782C137.693 25.0057 137.612 25.2045 137.448 25.3786C137.288 25.549 137.086 25.6342 136.841 25.6342ZM139.909 25.6342C139.685 25.6342 139.487 25.549 139.313 25.3786C139.142 25.2045 139.057 25.0057 139.057 24.782C139.057 24.5369 139.142 24.3345 139.313 24.1747C139.487 24.0114 139.685 23.9297 139.909 23.9297C140.154 23.9297 140.357 24.0114 140.516 24.1747C140.68 24.3345 140.761 24.5369 140.761 24.782C140.761 25.0057 140.68 25.2045 140.516 25.3786C140.357 25.549 140.154 25.6342 139.909 25.6342ZM143.61 38.2479V26.9979H144.824V28.2976H144.974C145.066 28.1555 145.194 27.9744 145.357 27.7543C145.524 27.5305 145.762 27.3317 146.071 27.1577C146.383 26.9801 146.806 26.8913 147.339 26.8913C148.027 26.8913 148.635 27.0636 149.16 27.408C149.686 27.7525 150.096 28.2408 150.391 28.8729C150.686 29.505 150.833 30.2507 150.833 31.1101C150.833 31.9766 150.686 32.7276 150.391 33.3633C150.096 33.9954 149.688 34.4854 149.166 34.8335C148.644 35.1779 148.042 35.3501 147.36 35.3501C146.834 35.3501 146.414 35.2631 146.097 35.0891C145.781 34.9116 145.538 34.7109 145.368 34.4872C145.197 34.2599 145.066 34.0717 144.974 33.9226H144.867V38.2479H143.61ZM144.846 31.0888C144.846 31.7067 144.936 32.2518 145.117 32.7241C145.298 33.1928 145.563 33.5604 145.911 33.8267C146.259 34.0895 146.685 34.2209 147.189 34.2209C147.715 34.2209 148.154 34.0824 148.505 33.8054C148.86 33.5249 149.127 33.1484 149.304 32.6761C149.485 32.2003 149.576 31.6712 149.576 31.0888C149.576 30.5135 149.487 29.995 149.309 29.5334C149.135 29.0682 148.871 28.7006 148.516 28.4308C148.164 28.1573 147.722 28.0206 147.189 28.0206C146.678 28.0206 146.248 28.1502 145.9 28.4094C145.552 28.6651 145.29 29.0238 145.112 29.4854C144.934 29.9435 144.846 30.478 144.846 31.0888ZM152.751 38.2479V26.9979H153.965V28.2976H154.114C154.206 28.1555 154.334 27.9744 154.498 27.7543C154.665 27.5305 154.902 27.3317 155.211 27.1577C155.524 26.9801 155.947 26.8913 156.479 26.8913C157.168 26.8913 157.775 27.0636 158.301 27.408C158.827 27.7525 159.237 28.2408 159.531 28.8729C159.826 29.505 159.974 30.2507 159.974 31.1101C159.974 31.9766 159.826 32.7276 159.531 33.3633C159.237 33.9954 158.828 34.4854 158.306 34.8335C157.784 35.1779 157.182 35.3501 156.501 35.3501C155.975 35.3501 155.554 35.2631 155.238 35.0891C154.922 34.9116 154.679 34.7109 154.508 34.4872C154.338 34.2599 154.206 34.0717 154.114 33.9226H154.008V38.2479H152.751ZM153.986 31.0888C153.986 31.7067 154.077 32.2518 154.258 32.7241C154.439 33.1928 154.704 33.5604 155.052 33.8267C155.4 34.0895 155.826 34.2209 156.33 34.2209C156.856 34.2209 157.294 34.0824 157.646 33.8054C158.001 33.5249 158.267 33.1484 158.445 32.6761C158.626 32.2003 158.716 31.6712 158.716 31.0888C158.716 30.5135 158.628 29.995 158.45 29.5334C158.276 29.0682 158.012 28.7006 157.656 28.4308C157.305 28.1573 156.863 28.0206 156.33 28.0206C155.819 28.0206 155.389 28.1502 155.041 28.4094C154.693 28.6651 154.43 29.0238 154.253 29.4854C154.075 29.9435 153.986 30.478 153.986 31.0888ZM166.28 35.1797V24.2706H167.537V28.2976H167.644C167.736 28.1555 167.864 27.9744 168.027 27.7543C168.194 27.5305 168.432 27.3317 168.741 27.1577C169.054 26.9801 169.476 26.8913 170.009 26.8913C170.698 26.8913 171.305 27.0636 171.831 27.408C172.356 27.7525 172.766 28.2408 173.061 28.8729C173.356 29.505 173.503 30.2507 173.503 31.1101C173.503 31.9766 173.356 32.7276 173.061 33.3633C172.766 33.9954 172.358 34.4854 171.836 34.8335C171.314 35.1779 170.712 35.3501 170.03 35.3501C169.505 35.3501 169.084 35.2631 168.768 35.0891C168.452 34.9116 168.209 34.7109 168.038 34.4872C167.868 34.2599 167.736 34.0717 167.644 33.9226H167.495V35.1797H166.28ZM167.516 31.0888C167.516 31.7067 167.607 32.2518 167.788 32.7241C167.969 33.1928 168.233 33.5604 168.581 33.8267C168.929 34.0895 169.356 34.2209 169.86 34.2209C170.385 34.2209 170.824 34.0824 171.176 33.8054C171.531 33.5249 171.797 33.1484 171.975 32.6761C172.156 32.2003 172.246 31.6712 172.246 31.0888C172.246 30.5135 172.157 29.995 171.98 29.5334C171.806 29.0682 171.541 28.7006 171.186 28.4308C170.835 28.1573 170.393 28.0206 169.86 28.0206C169.349 28.0206 168.919 28.1502 168.571 28.4094C168.223 28.6651 167.96 29.0238 167.782 29.4854C167.605 29.9435 167.516 30.478 167.516 31.0888ZM175.426 35.1797V26.9979H176.683V35.1797H175.426ZM176.065 25.6342C175.82 25.6342 175.609 25.5508 175.432 25.3839C175.258 25.217 175.171 25.0163 175.171 24.782C175.171 24.5476 175.258 24.3469 175.432 24.18C175.609 24.0131 175.82 23.9297 176.065 23.9297C176.311 23.9297 176.52 24.0131 176.694 24.18C176.872 24.3469 176.96 24.5476 176.96 24.782C176.96 25.0163 176.872 25.217 176.694 25.3839C176.52 25.5508 176.311 25.6342 176.065 25.6342ZM180.243 24.2706V35.1797H178.986V24.2706H180.243ZM185.635 35.3501C184.953 35.3501 184.351 35.1779 183.829 34.8335C183.307 34.4854 182.899 33.9954 182.604 33.3633C182.309 32.7276 182.162 31.9766 182.162 31.1101C182.162 30.2507 182.309 29.505 182.604 28.8729C182.899 28.2408 183.309 27.7525 183.834 27.408C184.36 27.0636 184.967 26.8913 185.656 26.8913C186.189 26.8913 186.61 26.9801 186.919 27.1577C187.231 27.3317 187.469 27.5305 187.632 27.7543C187.799 27.9744 187.929 28.1555 188.021 28.2976H188.128V24.2706H189.385V35.1797H188.17V33.9226H188.021C187.929 34.0717 187.798 34.2599 187.627 34.4872C187.457 34.7109 187.213 34.9116 186.897 35.0891C186.581 35.2631 186.16 35.3501 185.635 35.3501ZM185.805 34.2209C186.31 34.2209 186.736 34.0895 187.084 33.8267C187.432 33.5604 187.696 33.1928 187.877 32.7241C188.059 32.2518 188.149 31.7067 188.149 31.0888C188.149 30.478 188.06 29.9435 187.883 29.4854C187.705 29.0238 187.442 28.6651 187.094 28.4094C186.746 28.1502 186.317 28.0206 185.805 28.0206C185.273 28.0206 184.829 28.1573 184.474 28.4308C184.122 28.7006 183.858 29.0682 183.68 29.5334C183.506 29.995 183.419 30.5135 183.419 31.0888C183.419 31.6712 183.508 32.2003 183.685 32.6761C183.866 33.1484 184.133 33.5249 184.484 33.8054C184.839 34.0824 185.28 34.2209 185.805 34.2209ZM195.292 35.3501C194.504 35.3501 193.824 35.1761 193.252 34.8281C192.684 34.4766 192.245 33.9865 191.936 33.358C191.631 32.7259 191.478 31.9908 191.478 31.1527C191.478 30.3146 191.631 29.576 191.936 28.9368C192.245 28.294 192.675 27.7933 193.225 27.4347C193.779 27.0724 194.426 26.8913 195.164 26.8913C195.591 26.8913 196.011 26.9624 196.427 27.1044C196.842 27.2464 197.221 27.4773 197.561 27.7969C197.902 28.1129 198.174 28.532 198.376 29.054C198.579 29.576 198.68 30.2187 198.68 30.9822V31.5149H192.373V30.4283H197.402C197.402 29.9666 197.309 29.5547 197.125 29.1925C196.944 28.8303 196.684 28.5444 196.347 28.3349C196.013 28.1254 195.619 28.0206 195.164 28.0206C194.664 28.0206 194.23 28.1449 193.865 28.3935C193.502 28.6385 193.224 28.9581 193.028 29.3523C192.833 29.7464 192.735 30.169 192.735 30.62V31.3445C192.735 31.9624 192.842 32.4862 193.055 32.9158C193.272 33.342 193.572 33.6669 193.955 33.8906C194.339 34.1108 194.784 34.2209 195.292 34.2209C195.622 34.2209 195.921 34.1747 196.187 34.0824C196.457 33.9865 196.69 33.8445 196.885 33.6562C197.08 33.4645 197.231 33.2266 197.338 32.9425L198.552 33.2834C198.424 33.6953 198.209 34.0575 197.908 34.37C197.606 34.679 197.233 34.9205 196.789 35.0945C196.345 35.2649 195.846 35.3501 195.292 35.3501ZM200.592 35.1797V26.9979H201.807V28.2337H201.892C202.041 27.8288 202.311 27.5004 202.702 27.2482C203.092 26.9961 203.533 26.87 204.023 26.87C204.115 26.87 204.23 26.8718 204.369 26.8754C204.507 26.8789 204.612 26.8842 204.683 26.8913V28.1697C204.641 28.1591 204.543 28.1431 204.39 28.1218C204.241 28.0969 204.083 28.0845 203.916 28.0845C203.518 28.0845 203.163 28.168 202.851 28.3349C202.542 28.4982 202.297 28.7255 202.116 29.0167C201.938 29.3043 201.849 29.6328 201.849 30.0021V35.1797H200.592ZM211.649 30.2578V35.1797H210.392V24.2706H211.649V28.2763H211.756C211.948 27.8537 212.235 27.5181 212.619 27.2695C213.006 27.0174 213.521 26.8913 214.163 26.8913C214.721 26.8913 215.209 27.0032 215.628 27.2269C216.047 27.4471 216.372 27.7862 216.603 28.2443C216.837 28.6989 216.955 29.2777 216.955 29.9808V35.1797H215.698V30.0661C215.698 29.4162 215.529 28.9137 215.191 28.5586C214.858 28.1999 214.394 28.0206 213.801 28.0206C213.389 28.0206 213.02 28.1076 212.693 28.2816C212.37 28.4556 212.114 28.7095 211.926 29.0433C211.742 29.3771 211.649 29.782 211.649 30.2578ZM221.662 35.3714C221.144 35.3714 220.673 35.2738 220.251 35.0785C219.828 34.8796 219.492 34.5938 219.244 34.2209C218.995 33.8445 218.871 33.3899 218.871 32.8572C218.871 32.3885 218.963 32.0085 219.148 31.7173C219.333 31.4226 219.579 31.1918 219.888 31.0249C220.197 30.858 220.538 30.7337 220.911 30.652C221.287 30.5668 221.666 30.4993 222.046 30.4496C222.543 30.3857 222.946 30.3377 223.255 30.3058C223.567 30.2702 223.795 30.2116 223.937 30.13C224.082 30.0483 224.155 29.9062 224.155 29.7038V29.6612C224.155 29.1357 224.011 28.7273 223.724 28.4361C223.439 28.1449 223.008 27.9993 222.429 27.9993C221.829 27.9993 221.358 28.1307 221.018 28.3935C220.677 28.6562 220.437 28.9368 220.298 29.2351L219.105 28.8089C219.318 28.3118 219.602 27.9247 219.958 27.6477C220.316 27.3672 220.707 27.1719 221.129 27.0618C221.556 26.9482 221.975 26.8913 222.387 26.8913C222.649 26.8913 222.951 26.9233 223.292 26.9872C223.637 27.0476 223.969 27.1737 224.288 27.3654C224.611 27.5572 224.879 27.8466 225.092 28.2337C225.306 28.6207 225.412 29.1392 225.412 29.7891V35.1797H224.155V34.0717H224.091C224.006 34.2493 223.864 34.4393 223.665 34.6417C223.466 34.8441 223.202 35.0163 222.871 35.1584C222.541 35.3004 222.138 35.3714 221.662 35.3714ZM221.854 34.2422C222.351 34.2422 222.77 34.1445 223.111 33.9492C223.455 33.7539 223.715 33.5018 223.889 33.1928C224.066 32.8839 224.155 32.5589 224.155 32.218V31.0675C224.102 31.1314 223.985 31.19 223.803 31.2433C223.626 31.293 223.42 31.3374 223.186 31.3764C222.955 31.4119 222.729 31.4439 222.509 31.4723C222.292 31.4972 222.117 31.5185 221.982 31.5362C221.655 31.5788 221.35 31.6481 221.065 31.744C220.785 31.8363 220.558 31.9766 220.384 32.1648C220.213 32.3494 220.128 32.6016 220.128 32.9212C220.128 33.358 220.29 33.6882 220.613 33.9119C220.939 34.1321 221.353 34.2422 221.854 34.2422ZM220.938 25.6342C220.714 25.6342 220.515 25.549 220.341 25.3786C220.171 25.2045 220.085 25.0057 220.085 24.782C220.085 24.5369 220.171 24.3345 220.341 24.1747C220.515 24.0114 220.714 23.9297 220.938 23.9297C221.183 23.9297 221.385 24.0114 221.545 24.1747C221.708 24.3345 221.79 24.5369 221.79 24.782C221.79 25.0057 221.708 25.2045 221.545 25.3786C221.385 25.549 221.183 25.6342 220.938 25.6342ZM224.006 25.6342C223.782 25.6342 223.583 25.549 223.409 25.3786C223.239 25.2045 223.154 25.0057 223.154 24.782C223.154 24.5369 223.239 24.3345 223.409 24.1747C223.583 24.0114 223.782 23.9297 224.006 23.9297C224.251 23.9297 224.453 24.0114 224.613 24.1747C224.776 24.3345 224.858 24.5369 224.858 24.782C224.858 25.0057 224.776 25.2045 224.613 25.3786C224.453 25.549 224.251 25.6342 224.006 25.6342ZM227.707 35.1797V26.9979H228.921V28.2337H229.006C229.155 27.8288 229.425 27.5004 229.816 27.2482C230.207 26.9961 230.647 26.87 231.137 26.87C231.229 26.87 231.345 26.8718 231.483 26.8754C231.622 26.8789 231.726 26.8842 231.797 26.8913V28.1697C231.755 28.1591 231.657 28.1431 231.505 28.1218C231.355 28.0969 231.197 28.0845 231.03 28.0845C230.633 28.0845 230.278 28.168 229.965 28.3349C229.656 28.4982 229.411 28.7255 229.23 29.0167C229.052 29.3043 228.964 29.6328 228.964 30.0021V35.1797H227.707ZM240.937 35.3501C240.148 35.3501 239.468 35.1761 238.897 34.8281C238.328 34.4766 237.89 33.9865 237.581 33.358C237.276 32.7259 237.123 31.9908 237.123 31.1527C237.123 30.3146 237.276 29.576 237.581 28.9368C237.89 28.294 238.32 27.7933 238.87 27.4347C239.424 27.0724 240.07 26.8913 240.809 26.8913C241.235 26.8913 241.656 26.9624 242.071 27.1044C242.487 27.2464 242.865 27.4773 243.206 27.7969C243.547 28.1129 243.819 28.532 244.021 29.054C244.223 29.576 244.325 30.2187 244.325 30.9822V31.5149H238.018V30.4283H243.046C243.046 29.9666 242.954 29.5547 242.769 29.1925C242.588 28.8303 242.329 28.5444 241.991 28.3349C241.658 28.1254 241.263 28.0206 240.809 28.0206C240.308 28.0206 239.875 28.1449 239.509 28.3935C239.147 28.6385 238.868 28.9581 238.673 29.3523C238.478 29.7464 238.38 30.169 238.38 30.62V31.3445C238.38 31.9624 238.486 32.4862 238.7 32.9158C238.916 33.342 239.216 33.6669 239.6 33.8906C239.983 34.1108 240.429 34.2209 240.937 34.2209C241.267 34.2209 241.565 34.1747 241.832 34.0824C242.102 33.9865 242.334 33.8445 242.529 33.6562C242.725 33.4645 242.876 33.2266 242.982 32.9425L244.197 33.2834C244.069 33.6953 243.854 34.0575 243.552 34.37C243.25 34.679 242.877 34.9205 242.434 35.0945C241.99 35.2649 241.491 35.3501 240.937 35.3501ZM247.494 24.2706V35.1797H246.237V24.2706H247.494ZM251.054 24.2706V35.1797H249.796V24.2706H251.054ZM256.786 35.3501C255.998 35.3501 255.318 35.1761 254.746 34.8281C254.178 34.4766 253.74 33.9865 253.431 33.358C253.125 32.7259 252.972 31.9908 252.972 31.1527C252.972 30.3146 253.125 29.576 253.431 28.9368C253.74 28.294 254.169 27.7933 254.72 27.4347C255.274 27.0724 255.92 26.8913 256.659 26.8913C257.085 26.8913 257.505 26.9624 257.921 27.1044C258.336 27.2464 258.715 27.4773 259.056 27.7969C259.396 28.1129 259.668 28.532 259.871 29.054C260.073 29.576 260.174 30.2187 260.174 30.9822V31.5149H253.867V30.4283H258.896C258.896 29.9666 258.803 29.5547 258.619 29.1925C258.438 28.8303 258.178 28.5444 257.841 28.3349C257.507 28.1254 257.113 28.0206 256.659 28.0206C256.158 28.0206 255.725 28.1449 255.359 28.3935C254.997 28.6385 254.718 28.9581 254.523 29.3523C254.327 29.7464 254.23 30.169 254.23 30.62V31.3445C254.23 31.9624 254.336 32.4862 254.549 32.9158C254.766 33.342 255.066 33.6669 255.449 33.8906C255.833 34.1108 256.279 34.2209 256.786 34.2209C257.117 34.2209 257.415 34.1747 257.681 34.0824C257.951 33.9865 258.184 33.8445 258.379 33.6562C258.574 33.4645 258.725 33.2266 258.832 32.9425L260.046 33.2834C259.918 33.6953 259.704 34.0575 259.402 34.37C259.1 34.679 258.727 34.9205 258.283 35.0945C257.839 35.2649 257.34 35.3501 256.786 35.3501ZM262.086 35.1797V26.9979H263.301V28.2337H263.386C263.535 27.8288 263.805 27.5004 264.196 27.2482C264.586 26.9961 265.027 26.87 265.517 26.87C265.609 26.87 265.725 26.8718 265.863 26.8754C266.002 26.8789 266.106 26.8842 266.177 26.8913V28.1697C266.135 28.1591 266.037 28.1431 265.884 28.1218C265.735 28.0969 265.577 28.0845 265.41 28.0845C265.013 28.0845 264.657 28.168 264.345 28.3349C264.036 28.4982 263.791 28.7255 263.61 29.0167C263.432 29.3043 263.344 29.6328 263.344 30.0021V35.1797H262.086Z" fill="#151515"/>
<path d="M127.166 58.4297V47.5206H128.423V51.5476H128.53C128.622 51.4055 128.75 51.2244 128.913 51.0043C129.08 50.7805 129.318 50.5817 129.627 50.4077C129.94 50.2301 130.362 50.1413 130.895 50.1413C131.584 50.1413 132.191 50.3136 132.717 50.658C133.242 51.0025 133.652 51.4908 133.947 52.1229C134.242 52.755 134.389 53.5007 134.389 54.3601C134.389 55.2266 134.242 55.9776 133.947 56.6133C133.652 57.2454 133.244 57.7354 132.722 58.0835C132.2 58.4279 131.598 58.6001 130.916 58.6001C130.391 58.6001 129.97 58.5131 129.654 58.3391C129.338 58.1616 129.094 57.9609 128.924 57.7372C128.753 57.5099 128.622 57.3217 128.53 57.1726H128.381V58.4297H127.166ZM128.402 54.3388C128.402 54.9567 128.492 55.5018 128.674 55.9741C128.855 56.4428 129.119 56.8104 129.467 57.0767C129.815 57.3395 130.241 57.4709 130.746 57.4709C131.271 57.4709 131.71 57.3324 132.061 57.0554C132.416 56.7749 132.683 56.3984 132.86 55.9261C133.041 55.4503 133.132 54.9212 133.132 54.3388C133.132 53.7635 133.043 53.245 132.866 52.7834C132.692 52.3182 132.427 51.9506 132.072 51.6808C131.72 51.4073 131.278 51.2706 130.746 51.2706C130.234 51.2706 129.805 51.4002 129.457 51.6594C129.109 51.9151 128.846 52.2738 128.668 52.7354C128.491 53.1935 128.402 53.728 128.402 54.3388ZM137.569 47.5206V58.4297H136.312V47.5206H137.569ZM142.279 58.6214C141.761 58.6214 141.29 58.5238 140.868 58.3285C140.445 58.1296 140.11 57.8438 139.861 57.4709C139.612 57.0945 139.488 56.6399 139.488 56.1072C139.488 55.6385 139.58 55.2585 139.765 54.9673C139.95 54.6726 140.197 54.4418 140.505 54.2749C140.814 54.108 141.155 53.9837 141.528 53.902C141.905 53.8168 142.283 53.7493 142.663 53.6996C143.16 53.6357 143.563 53.5877 143.872 53.5558C144.184 53.5202 144.412 53.4616 144.554 53.38C144.699 53.2983 144.772 53.1562 144.772 52.9538V52.9112C144.772 52.3857 144.628 51.9773 144.341 51.6861C144.057 51.3949 143.625 51.2493 143.046 51.2493C142.446 51.2493 141.976 51.3807 141.635 51.6435C141.294 51.9062 141.054 52.1868 140.916 52.4851L139.722 52.0589C139.936 51.5618 140.22 51.1747 140.575 50.8977C140.933 50.6172 141.324 50.4219 141.747 50.3118C142.173 50.1982 142.592 50.1413 143.004 50.1413C143.266 50.1413 143.568 50.1733 143.909 50.2372C144.254 50.2976 144.586 50.4237 144.905 50.6154C145.229 50.8072 145.497 51.0966 145.71 51.4837C145.923 51.8707 146.029 52.3892 146.029 53.0391V58.4297H144.772V57.3217H144.708C144.623 57.4993 144.481 57.6893 144.282 57.8917C144.083 58.0941 143.819 58.2663 143.488 58.4084C143.158 58.5504 142.755 58.6214 142.279 58.6214ZM142.471 57.4922C142.968 57.4922 143.387 57.3945 143.728 57.1992C144.073 57.0039 144.332 56.7518 144.506 56.4428C144.683 56.1339 144.772 55.8089 144.772 55.468V54.3175C144.719 54.3814 144.602 54.44 144.421 54.4933C144.243 54.543 144.037 54.5874 143.803 54.6264C143.572 54.6619 143.346 54.6939 143.126 54.7223C142.91 54.7472 142.734 54.7685 142.599 54.7862C142.272 54.8288 141.967 54.8981 141.683 54.994C141.402 55.0863 141.175 55.2266 141.001 55.4148C140.83 55.5994 140.745 55.8516 140.745 56.1712C140.745 56.608 140.907 56.9382 141.23 57.1619C141.557 57.3821 141.97 57.4922 142.471 57.4922ZM141.555 48.8842C141.331 48.8842 141.132 48.799 140.958 48.6286C140.788 48.4545 140.703 48.2557 140.703 48.032C140.703 47.7869 140.788 47.5845 140.958 47.4247C141.132 47.2614 141.331 47.1797 141.555 47.1797C141.8 47.1797 142.002 47.2614 142.162 47.4247C142.325 47.5845 142.407 47.7869 142.407 48.032C142.407 48.2557 142.325 48.4545 142.162 48.6286C142.002 48.799 141.8 48.8842 141.555 48.8842ZM144.623 48.8842C144.399 48.8842 144.2 48.799 144.026 48.6286C143.856 48.4545 143.771 48.2557 143.771 48.032C143.771 47.7869 143.856 47.5845 144.026 47.4247C144.2 47.2614 144.399 47.1797 144.623 47.1797C144.868 47.1797 145.07 47.2614 145.23 47.4247C145.394 47.5845 145.475 47.7869 145.475 48.032C145.475 48.2557 145.394 48.4545 145.23 48.6286C145.07 48.799 144.868 48.8842 144.623 48.8842ZM151.413 58.6001C150.731 58.6001 150.13 58.4279 149.607 58.0835C149.085 57.7354 148.677 57.2454 148.382 56.6133C148.088 55.9776 147.94 55.2266 147.94 54.3601C147.94 53.5007 148.088 52.755 148.382 52.1229C148.677 51.4908 149.087 51.0025 149.613 50.658C150.138 50.3136 150.746 50.1413 151.435 50.1413C151.967 50.1413 152.388 50.2301 152.697 50.4077C153.009 50.5817 153.247 50.7805 153.411 51.0043C153.578 51.2244 153.707 51.4055 153.8 51.5476H153.906V47.5206H155.163V58.4297H153.949V57.1726H153.8C153.707 57.3217 153.576 57.5099 153.405 57.7372C153.235 57.9609 152.992 58.1616 152.676 58.3391C152.36 58.5131 151.939 58.6001 151.413 58.6001ZM151.584 57.4709C152.088 57.4709 152.514 57.3395 152.862 57.0767C153.21 56.8104 153.475 56.4428 153.656 55.9741C153.837 55.5018 153.927 54.9567 153.927 54.3388C153.927 53.728 153.839 53.1935 153.661 52.7354C153.484 52.2738 153.221 51.9151 152.873 51.6594C152.525 51.4002 152.095 51.2706 151.584 51.2706C151.051 51.2706 150.607 51.4073 150.252 51.6808C149.9 51.9506 149.636 52.3182 149.458 52.7834C149.284 53.245 149.197 53.7635 149.197 54.3388C149.197 54.9212 149.286 55.4503 149.464 55.9261C149.645 56.3984 149.911 56.7749 150.263 57.0554C150.618 57.3324 151.058 57.4709 151.584 57.4709ZM160.73 58.6001C160.048 58.6001 159.446 58.4279 158.924 58.0835C158.402 57.7354 157.994 57.2454 157.699 56.6133C157.404 55.9776 157.257 55.2266 157.257 54.3601C157.257 53.5007 157.404 52.755 157.699 52.1229C157.994 51.4908 158.404 51.0025 158.929 50.658C159.455 50.3136 160.062 50.1413 160.751 50.1413C161.284 50.1413 161.704 50.2301 162.013 50.4077C162.326 50.5817 162.564 50.7805 162.727 51.0043C162.894 51.2244 163.024 51.4055 163.116 51.5476H163.223V47.5206H164.48V58.4297H163.265V57.1726H163.116C163.024 57.3217 162.892 57.5099 162.722 57.7372C162.551 57.9609 162.308 58.1616 161.992 58.3391C161.676 58.5131 161.255 58.6001 160.73 58.6001ZM160.9 57.4709C161.404 57.4709 161.831 57.3395 162.179 57.0767C162.527 56.8104 162.791 56.4428 162.972 55.9741C163.153 55.5018 163.244 54.9567 163.244 54.3388C163.244 53.728 163.155 53.1935 162.978 52.7354C162.8 52.2738 162.537 51.9151 162.189 51.6594C161.841 51.4002 161.411 51.2706 160.9 51.2706C160.367 51.2706 159.924 51.4073 159.568 51.6808C159.217 51.9506 158.952 52.3182 158.775 52.7834C158.601 53.245 158.514 53.7635 158.514 54.3388C158.514 54.9212 158.603 55.4503 158.78 55.9261C158.961 56.3984 159.228 56.7749 159.579 57.0554C159.934 57.3324 160.375 57.4709 160.9 57.4709ZM166.957 58.4297V50.2479H168.171V51.4837H168.256C168.405 51.0788 168.675 50.7504 169.066 50.4982C169.457 50.2461 169.897 50.12 170.387 50.12C170.479 50.12 170.595 50.1218 170.733 50.1254C170.872 50.1289 170.976 50.1342 171.047 50.1413V51.4197C171.005 51.4091 170.907 51.3931 170.755 51.3718C170.605 51.3469 170.447 51.3345 170.28 51.3345C169.883 51.3345 169.528 51.418 169.215 51.5849C168.906 51.7482 168.661 51.9755 168.48 52.2667C168.302 52.5543 168.214 52.8828 168.214 53.2521V58.4297H166.957ZM174.945 58.6214C174.427 58.6214 173.956 58.5238 173.534 58.3285C173.111 58.1296 172.776 57.8438 172.527 57.4709C172.278 57.0945 172.154 56.6399 172.154 56.1072C172.154 55.6385 172.246 55.2585 172.431 54.9673C172.616 54.6726 172.863 54.4418 173.172 54.2749C173.48 54.108 173.821 53.9837 174.194 53.902C174.571 53.8168 174.949 53.7493 175.329 53.6996C175.826 53.6357 176.229 53.5877 176.538 53.5558C176.85 53.5202 177.078 53.4616 177.22 53.38C177.365 53.2983 177.438 53.1562 177.438 52.9538V52.9112C177.438 52.3857 177.294 51.9773 177.007 51.6861C176.723 51.3949 176.291 51.2493 175.712 51.2493C175.112 51.2493 174.642 51.3807 174.301 51.6435C173.96 51.9062 173.72 52.1868 173.582 52.4851L172.388 52.0589C172.602 51.5618 172.886 51.1747 173.241 50.8977C173.599 50.6172 173.99 50.4219 174.413 50.3118C174.839 50.1982 175.258 50.1413 175.67 50.1413C175.933 50.1413 176.234 50.1733 176.575 50.2372C176.92 50.2976 177.252 50.4237 177.571 50.6154C177.895 50.8072 178.163 51.0966 178.376 51.4837C178.589 51.8707 178.695 52.3892 178.695 53.0391V58.4297H177.438V57.3217H177.374C177.289 57.4993 177.147 57.6893 176.948 57.8917C176.749 58.0941 176.485 58.2663 176.154 58.4084C175.824 58.5504 175.421 58.6214 174.945 58.6214ZM175.137 57.4922C175.634 57.4922 176.053 57.3945 176.394 57.1992C176.739 57.0039 176.998 56.7518 177.172 56.4428C177.349 56.1339 177.438 55.8089 177.438 55.468V54.3175C177.385 54.3814 177.268 54.44 177.087 54.4933C176.909 54.543 176.703 54.5874 176.469 54.6264C176.238 54.6619 176.012 54.6939 175.792 54.7223C175.576 54.7472 175.4 54.7685 175.265 54.7862C174.938 54.8288 174.633 54.8981 174.349 54.994C174.068 55.0863 173.841 55.2266 173.667 55.4148C173.496 55.5994 173.411 55.8516 173.411 56.1712C173.411 56.608 173.573 56.9382 173.896 57.1619C174.223 57.3821 174.636 57.4922 175.137 57.4922Z" fill="#151515"/>
<path d="M110.621 75.2479C110.621 74.174 110.76 73.1868 111.038 72.2862C111.32 71.3828 111.72 70.5518 112.24 69.7933H113.126C112.922 70.0746 112.73 70.4212 112.551 70.8331C112.375 71.2422 112.22 71.6925 112.087 72.1839C111.953 72.6726 111.848 73.1783 111.771 73.701C111.697 74.2237 111.66 74.7393 111.66 75.2479C111.66 75.924 111.726 76.6101 111.856 77.3061C111.987 78.0021 112.163 78.6484 112.385 79.245C112.606 79.8416 112.854 80.3274 113.126 80.7024H112.24C111.72 79.9439 111.32 79.1143 111.038 78.2138C110.76 77.3104 110.621 76.3217 110.621 75.2479ZM114.95 72.3842H115.956V79.407C115.956 79.8104 115.886 80.1598 115.747 80.4553C115.611 80.7507 115.403 80.9794 115.125 81.1413C114.849 81.3033 114.501 81.3842 114.081 81.3842C114.047 81.3842 114.013 81.3842 113.979 81.3842C113.945 81.3842 113.91 81.3842 113.876 81.3842V80.4467C113.91 80.4467 113.942 80.4467 113.97 80.4467C113.999 80.4467 114.03 80.4467 114.064 80.4467C114.371 80.4467 114.595 80.3558 114.737 80.174C114.879 79.995 114.95 79.7393 114.95 79.407V72.3842ZM115.445 71.2933C115.249 71.2933 115.08 71.2266 114.937 71.093C114.798 70.9595 114.729 70.799 114.729 70.6115C114.729 70.424 114.798 70.2635 114.937 70.13C115.08 69.9964 115.249 69.9297 115.445 69.9297C115.641 69.9297 115.808 69.9964 115.947 70.13C116.089 70.2635 116.16 70.424 116.16 70.6115C116.16 70.799 116.089 70.9595 115.947 71.093C115.808 71.2266 115.641 71.2933 115.445 71.2933ZM117.798 81.3842V72.3842H118.769V73.424H118.889C118.963 73.3104 119.065 73.1655 119.196 72.9893C119.329 72.8104 119.519 72.6513 119.767 72.5121C120.017 72.37 120.355 72.299 120.781 72.299C121.332 72.299 121.818 72.4368 122.238 72.7124C122.659 72.9879 122.987 73.3786 123.223 73.8842C123.458 74.3899 123.576 74.9865 123.576 75.674C123.576 76.3672 123.458 76.968 123.223 77.4766C122.987 77.9822 122.66 78.3743 122.242 78.6527C121.825 78.9283 121.343 79.0661 120.798 79.0661C120.377 79.0661 120.041 78.9964 119.788 78.8572C119.535 78.7152 119.341 78.5547 119.204 78.3757C119.068 78.1939 118.963 78.0433 118.889 77.924H118.804V81.3842H117.798ZM118.787 75.657C118.787 76.1513 118.859 76.5874 119.004 76.9652C119.149 77.3402 119.36 77.6342 119.639 77.8473C119.917 78.0575 120.258 78.1626 120.662 78.1626C121.082 78.1626 121.433 78.0518 121.714 77.8303C121.998 77.6058 122.211 77.3047 122.353 76.9268C122.498 76.5462 122.571 76.1229 122.571 75.657C122.571 75.1967 122.5 74.782 122.358 74.4126C122.218 74.0405 122.007 73.7464 121.723 73.5305C121.441 73.3118 121.088 73.2024 120.662 73.2024C120.252 73.2024 119.909 73.3061 119.63 73.5135C119.352 73.718 119.142 74.005 119 74.3743C118.858 74.7408 118.787 75.1683 118.787 75.657ZM127.855 79.0661C127.224 79.0661 126.68 78.9268 126.223 78.6484C125.768 78.3672 125.417 77.9751 125.17 77.4723C124.926 76.9666 124.804 76.3786 124.804 75.7081C124.804 75.0376 124.926 74.4467 125.17 73.9354C125.417 73.4212 125.761 73.0206 126.201 72.7337C126.644 72.4439 127.162 72.299 127.752 72.299C128.093 72.299 128.43 72.3558 128.762 72.4695C129.095 72.5831 129.397 72.7678 129.67 73.0234C129.943 73.2763 130.16 73.6115 130.322 74.0291C130.484 74.4467 130.565 74.9609 130.565 75.5717V75.9979H125.519V75.1286H129.542C129.542 74.7592 129.468 74.4297 129.321 74.1399C129.176 73.8501 128.968 73.6214 128.698 73.4538C128.431 73.2862 128.116 73.2024 127.752 73.2024C127.352 73.2024 127.005 73.3018 126.713 73.5007C126.423 73.6967 126.2 73.9524 126.044 74.2678C125.887 74.5831 125.809 74.9212 125.809 75.282V75.8615C125.809 76.3558 125.894 76.7749 126.065 77.1186C126.238 77.4595 126.478 77.7195 126.785 77.8984C127.092 78.0746 127.448 78.1626 127.855 78.1626C128.119 78.1626 128.358 78.1257 128.571 78.0518C128.787 77.9751 128.973 77.8615 129.129 77.7109C129.285 77.5575 129.406 77.3672 129.491 77.1399L130.463 77.4126C130.36 77.7422 130.189 78.032 129.947 78.282C129.706 78.5291 129.407 78.7223 129.052 78.8615C128.697 78.9979 128.298 79.0661 127.855 79.0661ZM134.737 81.5206C134.251 81.5206 133.833 81.4581 133.484 81.3331C133.135 81.2109 132.843 81.049 132.61 80.8473C132.38 80.6484 132.197 80.4354 132.061 80.2081L132.862 79.6456C132.953 79.7649 133.068 79.9013 133.207 80.0547C133.346 80.2109 133.537 80.3459 133.778 80.4595C134.022 80.576 134.342 80.6342 134.737 80.6342C135.265 80.6342 135.701 80.5064 136.045 80.2507C136.389 79.995 136.561 79.5945 136.561 79.049V77.7195H136.475C136.402 77.8388 136.296 77.9865 136.16 78.1626C136.027 78.3359 135.833 78.4908 135.581 78.6271C135.331 78.7607 134.992 78.8274 134.566 78.8274C134.038 78.8274 133.564 78.7024 133.143 78.4524C132.725 78.2024 132.394 77.8388 132.15 77.3615C131.909 76.8842 131.788 76.3047 131.788 75.6229C131.788 74.9524 131.906 74.3686 132.142 73.8714C132.377 73.3714 132.706 72.9851 133.126 72.7124C133.546 72.4368 134.032 72.299 134.583 72.299C135.01 72.299 135.348 72.37 135.598 72.5121C135.85 72.6513 136.044 72.8104 136.177 72.9893C136.314 73.1655 136.419 73.3104 136.492 73.424H136.595V72.3842H137.566V79.1172C137.566 79.6797 137.439 80.1371 137.183 80.4893C136.93 80.8445 136.589 81.1044 136.16 81.2692C135.734 81.4368 135.26 81.5206 134.737 81.5206ZM134.703 77.924C135.106 77.924 135.447 77.8317 135.725 77.647C136.004 77.4624 136.216 77.1967 136.36 76.8501C136.505 76.5036 136.578 76.0888 136.578 75.6058C136.578 75.1342 136.507 74.718 136.365 74.3572C136.223 73.9964 136.012 73.7138 135.734 73.5092C135.456 73.3047 135.112 73.2024 134.703 73.2024C134.277 73.2024 133.921 73.3104 133.637 73.5263C133.356 73.7422 133.144 74.032 133.002 74.3956C132.863 74.7592 132.794 75.1626 132.794 75.6058C132.794 76.0604 132.865 76.4624 133.007 76.8118C133.152 77.1584 133.365 77.4311 133.646 77.63C133.93 77.826 134.282 77.924 134.703 77.924ZM145.527 79.0661C144.896 79.0661 144.352 78.9268 143.894 78.6484C143.44 78.3672 143.089 77.9751 142.842 77.4723C142.598 76.9666 142.475 76.3786 142.475 75.7081C142.475 75.0376 142.598 74.4467 142.842 73.9354C143.089 73.4212 143.433 73.0206 143.873 72.7337C144.316 72.4439 144.833 72.299 145.424 72.299C145.765 72.299 146.102 72.3558 146.434 72.4695C146.767 72.5831 147.069 72.7678 147.342 73.0234C147.615 73.2763 147.832 73.6115 147.994 74.0291C148.156 74.4467 148.237 74.9609 148.237 75.5717V75.9979H143.191V75.1286H147.214C147.214 74.7592 147.14 74.4297 146.992 74.1399C146.848 73.8501 146.64 73.6214 146.37 73.4538C146.103 73.2862 145.788 73.2024 145.424 73.2024C145.024 73.2024 144.677 73.3018 144.385 73.5007C144.095 73.6967 143.872 73.9524 143.716 74.2678C143.559 74.5831 143.481 74.9212 143.481 75.282V75.8615C143.481 76.3558 143.566 76.7749 143.737 77.1186C143.91 77.4595 144.15 77.7195 144.457 77.8984C144.764 78.0746 145.12 78.1626 145.527 78.1626C145.791 78.1626 146.029 78.1257 146.242 78.0518C146.458 77.9751 146.644 77.8615 146.801 77.7109C146.957 77.5575 147.078 77.3672 147.163 77.1399L148.135 77.4126C148.032 77.7422 147.86 78.032 147.619 78.282C147.377 78.5291 147.079 78.7223 146.724 78.8615C146.369 78.9979 145.97 79.0661 145.527 79.0661ZM150.772 70.2024V78.9297H149.767V70.2024H150.772ZM153.62 70.2024V78.9297H152.614V70.2024H153.62ZM158.206 79.0661C157.576 79.0661 157.032 78.9268 156.574 78.6484C156.12 78.3672 155.769 77.9751 155.522 77.4723C155.277 76.9666 155.155 76.3786 155.155 75.7081C155.155 75.0376 155.277 74.4467 155.522 73.9354C155.769 73.4212 156.113 73.0206 156.553 72.7337C156.996 72.4439 157.513 72.299 158.104 72.299C158.445 72.299 158.782 72.3558 159.114 72.4695C159.446 72.5831 159.749 72.7678 160.022 73.0234C160.294 73.2763 160.512 73.6115 160.674 74.0291C160.836 74.4467 160.917 74.9609 160.917 75.5717V75.9979H155.871V75.1286H159.894C159.894 74.7592 159.82 74.4297 159.672 74.1399C159.527 73.8501 159.32 73.6214 159.05 73.4538C158.783 73.2862 158.468 73.2024 158.104 73.2024C157.703 73.2024 157.357 73.3018 157.064 73.5007C156.774 73.6967 156.551 73.9524 156.395 74.2678C156.239 74.5831 156.161 74.9212 156.161 75.282V75.8615C156.161 76.3558 156.246 76.7749 156.417 77.1186C156.59 77.4595 156.83 77.7195 157.137 77.8984C157.443 78.0746 157.8 78.1626 158.206 78.1626C158.47 78.1626 158.709 78.1257 158.922 78.0518C159.138 77.9751 159.324 77.8615 159.48 77.7109C159.637 77.5575 159.757 77.3672 159.843 77.1399L160.814 77.4126C160.712 77.7422 160.54 78.032 160.299 78.282C160.057 78.5291 159.759 78.7223 159.404 78.8615C159.049 78.9979 158.649 79.0661 158.206 79.0661ZM162.446 78.9297V72.3842H163.418V73.3729H163.486C163.605 73.049 163.821 72.7862 164.134 72.5845C164.446 72.3828 164.799 72.282 165.191 72.282C165.265 72.282 165.357 72.2834 165.468 72.2862C165.578 72.2891 165.662 72.2933 165.719 72.299V73.3217C165.685 73.3132 165.607 73.3004 165.485 73.2834C165.365 73.2635 165.239 73.2536 165.105 73.2536C164.787 73.2536 164.503 73.3203 164.253 73.4538C164.006 73.5845 163.81 73.7663 163.665 73.9993C163.523 74.2294 163.452 74.4922 163.452 74.7876V78.9297H162.446ZM170.286 81.3842V72.3842H171.258V73.424H171.377C171.451 73.3104 171.553 73.1655 171.684 72.9893C171.817 72.8104 172.008 72.6513 172.255 72.5121C172.505 72.37 172.843 72.299 173.269 72.299C173.82 72.299 174.306 72.4368 174.727 72.7124C175.147 72.9879 175.475 73.3786 175.711 73.8842C175.947 74.3899 176.065 74.9865 176.065 75.674C176.065 76.3672 175.947 76.968 175.711 77.4766C175.475 77.9822 175.148 78.3743 174.731 78.6527C174.313 78.9283 173.832 79.0661 173.286 79.0661C172.866 79.0661 172.529 78.9964 172.276 78.8572C172.023 78.7152 171.829 78.5547 171.692 78.3757C171.556 78.1939 171.451 78.0433 171.377 77.924H171.292V81.3842H170.286ZM171.275 75.657C171.275 76.1513 171.347 76.5874 171.492 76.9652C171.637 77.3402 171.849 77.6342 172.127 77.8473C172.405 78.0575 172.746 78.1626 173.15 78.1626C173.57 78.1626 173.921 78.0518 174.202 77.8303C174.486 77.6058 174.7 77.3047 174.842 76.9268C174.986 76.5462 175.059 76.1229 175.059 75.657C175.059 75.1967 174.988 74.782 174.846 74.4126C174.707 74.0405 174.495 73.7464 174.211 73.5305C173.93 73.3118 173.576 73.2024 173.15 73.2024C172.741 73.2024 172.397 73.3061 172.119 73.5135C171.84 73.718 171.63 74.005 171.488 74.3743C171.346 74.7408 171.275 75.1683 171.275 75.657ZM178.604 74.9922V78.9297H177.599V72.3842H178.57V73.407H178.655C178.809 73.0746 179.042 72.8075 179.354 72.6058C179.667 72.4013 180.07 72.299 180.565 72.299C181.008 72.299 181.396 72.3899 181.728 72.5717C182.06 72.7507 182.319 73.0234 182.504 73.3899C182.688 73.7536 182.78 74.2138 182.78 74.7706V78.9297H181.775V74.8388C181.775 74.3246 181.641 73.924 181.374 73.6371C181.107 73.3473 180.741 73.2024 180.275 73.2024C179.954 73.2024 179.667 73.272 179.414 73.4112C179.164 73.5504 178.967 73.7536 178.822 74.0206C178.677 74.2876 178.604 74.6115 178.604 74.9922ZM187.26 81.5206C186.774 81.5206 186.357 81.4581 186.007 81.3331C185.658 81.2109 185.367 81.049 185.134 80.8473C184.904 80.6484 184.72 80.4354 184.584 80.2081L185.385 79.6456C185.476 79.7649 185.591 79.9013 185.73 80.0547C185.87 80.2109 186.06 80.3459 186.301 80.4595C186.546 80.576 186.865 80.6342 187.26 80.6342C187.789 80.6342 188.225 80.5064 188.568 80.2507C188.912 79.995 189.084 79.5945 189.084 79.049V77.7195H188.999C188.925 77.8388 188.82 77.9865 188.684 78.1626C188.55 78.3359 188.357 78.4908 188.104 78.6271C187.854 78.7607 187.516 78.8274 187.09 78.8274C186.561 78.8274 186.087 78.7024 185.667 78.4524C185.249 78.2024 184.918 77.8388 184.674 77.3615C184.432 76.8842 184.311 76.3047 184.311 75.6229C184.311 74.9524 184.429 74.3686 184.665 73.8714C184.901 73.3714 185.229 72.9851 185.649 72.7124C186.07 72.4368 186.556 72.299 187.107 72.299C187.533 72.299 187.871 72.37 188.121 72.5121C188.374 72.6513 188.567 72.8104 188.701 72.9893C188.837 73.1655 188.942 73.3104 189.016 73.424H189.118V72.3842H190.09V79.1172C190.09 79.6797 189.962 80.1371 189.706 80.4893C189.453 80.8445 189.113 81.1044 188.684 81.2692C188.257 81.4368 187.783 81.5206 187.26 81.5206ZM187.226 77.924C187.63 77.924 187.97 77.8317 188.249 77.647C188.527 77.4624 188.739 77.1967 188.884 76.8501C189.029 76.5036 189.101 76.0888 189.101 75.6058C189.101 75.1342 189.03 74.718 188.888 74.3572C188.746 73.9964 188.536 73.7138 188.257 73.5092C187.979 73.3047 187.635 73.2024 187.226 73.2024C186.8 73.2024 186.445 73.3104 186.161 73.5263C185.88 73.7422 185.668 74.032 185.526 74.3956C185.387 74.7592 185.317 75.1626 185.317 75.6058C185.317 76.0604 185.388 76.4624 185.53 76.8118C185.675 77.1584 185.888 77.4311 186.169 77.63C186.453 77.826 186.806 77.924 187.226 77.924ZM194.078 75.2479C194.078 76.3217 193.938 77.3104 193.657 78.2138C193.378 79.1143 192.979 79.9439 192.459 80.7024H191.573C191.777 80.4212 191.968 80.0746 192.144 79.6626C192.323 79.2536 192.479 78.8047 192.613 78.3161C192.746 77.8246 192.85 77.3175 192.924 76.7947C193 76.2692 193.039 75.7536 193.039 75.2479C193.039 74.5717 192.973 73.8857 192.843 73.1896C192.712 72.4936 192.536 71.8473 192.314 71.2507C192.093 70.6541 191.845 70.1683 191.573 69.7933H192.459C192.979 70.5518 193.378 71.3828 193.657 72.2862C193.938 73.1868 194.078 74.174 194.078 75.2479Z" fill="#6C757D"/>
</svg>
